
<svg xmlns="http://www.w3.org/2000/svg" viewBox="0 0 206 43" width="206"><path d="M51.9 41.6a1.69 1.69 0 0 1-1-.3c-.3-.2-.5-.4-.7-.7a1.69 1.69 0 0 1-.3-1 1.69 1.69 0 0 1 .3-1c.2-.3.4-.5.7-.7a1.69 1.69 0 0 1 1-.3c.3 0 .5 0 .8.1.2.1.4.2.6.4l-.3.4c-.2-.2-.3-.3-.5-.4s-.4-.1-.6-.1c-.3 0-.5.1-.8.2-.2.1-.4.3-.6.6s-.2.5-.2.8.1.6.2.8.3.4.6.6c.2.1.5.2.8.2.2 0 .4 0 .6-.1s.4-.2.5-.3l.2.3c-.2.2-.4.3-.6.4s-.5.1-.7.1zm3.4-.1v-3.8h3.3v3.8h-.4v-3.4h-2.5v3.4h-.4zm7.4.1c-.3 0-.7-.1-.9-.3-.3-.2-.5-.4-.7-.7s-.2-.6-.2-1 .1-.7.2-1 .4-.5.6-.7c.3-.2.6-.3.9-.3.4 0 .7.1.9.3.3.2.5.4.6.7s.2.6.2 1v.1.1h0-.4v-.1-.1c0-.3-.1-.6-.2-.8s-.3-.4-.5-.6c-.2-.1-.4-.2-.7-.2s-.5.1-.7.2-.4.3-.5.6c-.1.2-.2.5-.2.8s.1.6.2.8.3.4.5.6c.2.1.5.2.8.2.2 0 .5 0 .7-.1s.4-.2.5-.4l.2.3c-.2.2-.4.3-.6.4-.2.2-.5.2-.7.2zM61 39.8v-.4h3.2v.4H61zm8.8 2.7v-.9h-3.3v-3.8h.4v3.4h2.5v-3.4h.4v3.4h.5v1.3h-.5zm5.6-1H75v-3.1l-2.5 3.1h-.4v-3.8h.4v3.1l2.5-3.1h.4v3.8zm5.7 0h-.4v-3.1l-2.5 3.1h-.4v-3.8h.4v3.1l2.5-3.1h.4v3.8zm9 0h-.4v-3.1l-2.5 3.1h-.4v-3.8h.4v3.1l2.5-3.1h.4v3.8zm9 0h-.4v-3.1l-2.5 3.1h-.4v-3.8h.4v3.1l2.5-3.1h.4v3.8zm2.4 0v-3.8h.4v1.7h2.5v-1.7h.4v3.8h-.4v-1.7h-2.5v1.7h-.4zm5.8 0v-3.8h2.3v.4h-1.9v3.4h-.4zm4.2 1.5v-5.2h.4v1l-.1.8.1.9V43h-.4zm.3-4.2v.9l.1 1.1v.8h-.4v-2.2l.3-.6zm.7 2.6c-.3-.2-.5-.4-.6-.7s-.2-.6-.2-1 .1-.7.2-1 .4-.5.6-.7c.3-.2.6-.3.9-.3s.6.1.9.3.5.4.7.7.2.6.2 1-.1.7-.2 1c-.2.3-.4.5-.7.7s-.6.3-.9.3c-.4-.1-.7-.2-.9-.3zm1.6-.4c.2-.1.4-.3.5-.6.1-.2.2-.5.2-.8s-.1-.6-.2-.8-.3-.4-.5-.6c-.2-.1-.5-.2-.7-.2-.3 0-.5.1-.7.2s-.4.3-.5.6c-.1.2-.2.5-.2.8s.1.6.2.8.3.4.5.6c.2.1.5.2.7.2s.4 0 .7-.2zm4.8.6c-.3 0-.7-.1-.9-.3-.3-.2-.5-.4-.7-.7s-.2-.6-.2-1 .1-.7.2-1 .4-.5.6-.7c.3-.2.6-.3.9-.3.4 0 .7.1.9.3.3.2.5.4.6.7s.2.6.2 1v.1.1h0-.4v-.1-.1c0-.3-.1-.6-.2-.8s-.3-.4-.5-.6c-.2-.1-.4-.2-.7-.2s-.5.1-.7.2-.4.3-.5.6-.2.5-.2.8.1.6.2.8.3.4.5.6c.2.1.5.2.8.2.2 0 .5 0 .7-.1s.4-.2.5-.4l.2.3c-.2.2-.4.3-.6.4-.1.2-.4.2-.7.2zm-1.6-1.8v-.4h3.2v.4h-3.2zm4.6 2.7v-1.4h.3c.2-.2.3-.4.4-.6s.2-.5.2-.7c.1-.3.1-.6.1-1l.1-1.1h2.5v3.4h.4v1.4h-.4v-1h-3.3v1h-.3zm.8-1.3h2.5v-3h-1.8l-.1.9c0 .3-.1.6-.1.8s-.1.5-.2.6c-.1.2-.2.4-.3.5.1 0 0 .1 0 .2 0-.1 0-.1 0 0zm8.5.3h-.4v-3.1l-2.5 3.1h-.3v-3.8h.4v3.1l2.5-3.1h.4v3.8zm4.1.1c-.3 0-.7-.1-.9-.3-.3-.2-.5-.4-.7-.7s-.2-.6-.2-1 .1-.7.2-1 .4-.5.6-.7c.3-.2.6-.3.9-.3.4 0 .7.1.9.3.3.2.5.4.6.7s.2.6.2 1v.1.1h0-.4v-.1-.1c0-.3-.1-.6-.2-.8s-.3-.4-.5-.6c-.2-.1-.4-.2-.7-.2s-.5.1-.7.2-.4.3-.5.6c-.1.2-.2.5-.2.8s.1.6.2.8.3.4.5.6c.2.1.5.2.8.2.2 0 .5 0 .7-.1s.4-.2.5-.4l.2.3c-.2.2-.4.3-.6.4-.2.2-.4.2-.7.2zm-1.7-1.8v-.4h3.2v.4h-3.2zm5.5 1.7v-3.8h.4v1.7h2.5v-1.7h.4v3.8h-.4v-1.7h-2.5v1.7h-.4zm6.5 0v-3.4h-1.3v-.4h3.1v.4H146v3.4h-.4zm3.7 0v-3.8h.4v1.4h1.7c.2 0 .4.1.6.2a.78.78 0 0 1 .4.4c.1.2.2.4.2.6s-.1.4-.2.6a.78.78 0 0 1-.4.4c-.2.1-.4.2-.6.2h-2.1zm2.1-.3c.2 0 .3 0 .4-.1l.3-.3c.1-.1.1-.3.1-.4 0-.2 0-.3-.1-.4l-.3-.3c-.1-.1-.3-.1-.4-.1h-1.7v1.7h1.7zm2.2.3v-3.8h.4v3.8h-.4zM0 11.6l15.6-3.8 1.3 5.2-10.3 2.5.9 3.9 9.9-2.4 1.3 5.2-9.9 2.4 2.1 8.5-5.3 1.3L0 11.6zm49.4 2.3C48.2 6.5 42.6 2.6 36.1 3.7c-6.6 1.1-10.6 6.6-9.4 14C27.9 25 33.5 29 40.1 27.9c6.5-1.1 10.6-6.6 9.3-14zm-10.3 8.4c-3.5.6-6.3-1.4-7-5.5s1.3-6.9 4.8-7.4c3.5-.6 6.3 1.4 7 5.5.7 4-1.2 6.8-4.8 7.4zM57.3 2.2l11.8-1c4.3-.4 7.7 2.2 8.1 6.6.3 3.3-1.2 5.9-3.7 7.1v.2l6.8 8.6-.9.1-6 .5-5.7-7.6-3.6.3.7 8.1-5.4.5-2.1-23.4zm6 5.2l.3 3.9 6.4-.6c1.2-.1 2-.9 1.8-2.2-.1-1.2-1-1.9-2.2-1.8l-6.3.7zm65.5 5l1-12.4 5.4.5-1.1 12.9c-.3 3.4 1.1 5.2 4.2 5.6 3.1.1 4.8-1.4 5.1-4.9l1.1-12.9 5.4.5-1 12.4c-.6 7.7-4.6 11.1-11 10.6-6.4-.6-9.7-4.7-9.1-12.3zm33.3-9.3l5.4.8-2.8 17.9 10.4 1.6-.8 5.3-15.8-2.5 3.6-23.1zM200 33.8l-.5-4-9.3-2.1L188 31l-5.9-1.3L196 8.8l6.3 1.4 3.6 24.8-5.9-1.2zm-6.7-11l5.5 1.3-.9-7.6-.5-.1-4.1 6.4zm-75.2-8.2h0 0L112.8 0h-5.9c-.1 0-.2 0-.3.1L104 7.3l-1.2 3.3h0 0l-1.2-3.3L99 .1c0-.1-.1-.1-.2-.1h-5.9l-5.2 14.6h0 0l-2.1 5.8 1.2.9h0l4.3 3.1h1.7l1.6-4.9-1.7-1.3h0l.1-.2 3-9 .2-.6 1.5 4.3 2 5.7h6.6l2-5.7 1.5-4.3.2.7 3 9 .1.2h0l-1.7 1.3 1.6 4.9h1.7l4.3-3.1h0l1.2-.9-1.9-5.9z"/></svg>